<?xml version="1.0" encoding="utf-8"?>
<svg width="48" height="48" viewBox="0 0 48 48" xmlns="http://www.w3.org/2000/svg">
  <defs>
    <!-- Rainbow gradient -->
    <linearGradient id="rainbowFill" x1="0%" y1="0%" x2="100%" y2="0%">
      <stop offset="0%" stop-color="red" />
      <stop offset="16.6%" stop-color="orange" />
      <stop offset="33.3%" stop-color="yellow" />
      <stop offset="50%" stop-color="green" />
      <stop offset="66.6%" stop-color="blue" />
      <stop offset="83.3%" stop-color="indigo" />
      <stop offset="100%" stop-color="violet" />
    </linearGradient>

    <!-- Clip path for half-filled bucket -->
    <clipPath id="bucketClip">
      <rect x="0" y="24" width="48" height="24" />
    </clipPath>
  </defs>

  <!-- Filled bottom half of the bucket with rainbow -->
  <g clip-path="url(#bucketClip)" opacity="0.8">
    <path
      d="M36.3,27L14.6,5.5c-1.9-1.9-5-1.9-6.9,0L6.8,6.4c-1.9,1.9-1.9,5,0,6.9l7.3,7.3 7.9-7.9L5.3,24.7c-1,1-1,2.6,0,3.7l12,11.5c1.1,1.1,2.9,1.1,4,0 3.5-3.4,11-10.7,11.8-11.5c0.5-0.5,1.7-0.7,2.7-0.7h0.1C36.2,27.7,36.3,27,36.3,27Z"
      fill="url(#rainbowFill)"
    />
  </g>

  <!-- Bucket stroke -->
  <path
    d="M36.3,27L14.6,5.5c-1.9-1.9-5-1.9-6.9,0L6.8,6.4c-1.9,1.9-1.9,5,0,6.9l7.3,7.3 7.9-7.9L5.3,24.7c-1,1-1,2.6,0,3.7l12,11.5c1.1,1.1,2.9,1.1,4,0 3.5-3.4,11-10.7,11.8-11.5c0.5-0.5,1.7-0.7,2.7-0.7h0.1C36.2,27.7,36.3,27,36.3,27Z"
    fill="none"
    stroke="url(#rainbowFill)"
    stroke-width="3"
    stroke-miterlimit="10"
  />

  <!-- Rainbow droplet -->
  <path
    d="M39.3,31.6c-1,1.3-4.2,4.9-4.2,8.2 0,2.8,2,5.2,4.5,5.2s4.5-2.3,4.5-5.2C44.1,36.5,40.3,32.9,39.3,31.6Z"
    fill="url(#rainbowFill)"
    stroke="url(#rainbowFill)"
    stroke-width="0.3"
  />
</svg>
